<svg xmlns="http://www.w3.org/2000/svg" viewBox="0 0 64 64" width="64" height="64">
  <defs>
    <linearGradient id="g" x1="0" x2="1" y1="0" y2="1">
      <stop offset="0" stop-color="#ff87b7"/>
      <stop offset="1" stop-color="#ff4f8b"/>
    </linearGradient>
  </defs>
  <path fill="url(#g)" d="M32 58s-5-4.2-10.1-8.7C16.9 44.8 12 40.4 9 36.2 6.5 32.8 5 29.3 5 25.5 5 17.8 11 12 18.4 12c4 0 7.5 1.7 9.6 4.8 2.1-3.1 5.6-4.8 9.6-4.8C45 12 51 17.8 51 25.5c0 3.8-1.5 7.3-4 10.7-3 4.2-7.9 8.6-12.9 13.1C37 53.8 32 58 32 58z"/>
</svg>
